<svg width="32" height="33" viewBox="0 0 32 33" fill="none" xmlns="http://www.w3.org/2000/svg">
<path d="M22.9582 18.8211V24.1593H19.9576V19.1777C19.9576 17.9273 19.5236 17.0739 18.437 17.0739C17.6081 17.0739 17.1139 17.6486 16.8968 18.206C16.8184 18.4052 16.7974 18.6825 16.7974 18.9597V24.1593H13.7954C13.7954 24.1593 13.836 15.7239 13.7954 14.8503H16.7974V16.1686L16.7778 16.1989H16.7974V16.17C17.1965 15.5347 17.9078 14.6308 19.5026 14.6308C21.4768 14.6308 22.9582 15.9621 22.9582 18.8211ZM10.6548 10.3611C9.62851 10.3611 8.95642 11.0571 8.95642 11.9696C8.95642 12.8649 9.6089 13.5796 10.6156 13.5796H10.6352C11.6826 13.5796 12.3337 12.8634 12.3337 11.9696C12.314 11.0571 11.6826 10.3611 10.6548 10.3611ZM9.13424 24.1593H12.1362V14.8503H9.13424V24.1593Z" fill="white"/>
<path d="M15.9573 28.7408C18.9281 28.7408 21.7773 27.5238 23.8779 25.3575C25.9786 23.1911 27.1588 20.253 27.1588 17.1893C27.1588 14.1257 25.9786 11.1875 23.8779 9.02121C21.7773 6.85489 18.9281 5.63787 15.9573 5.63787C12.9865 5.63787 10.1374 6.85489 8.03674 9.02121C5.93607 11.1875 4.75592 14.1257 4.75592 17.1893C4.75592 20.253 5.93607 23.1911 8.03674 25.3575C10.1374 27.5238 12.9865 28.7408 15.9573 28.7408ZM15.9573 31.6287C8.22416 31.6287 1.95557 25.1642 1.95557 17.1893C1.95557 9.21449 8.22416 2.75 15.9573 2.75C23.6905 2.75 29.9591 9.21449 29.9591 17.1893C29.9591 25.1642 23.6905 31.6287 15.9573 31.6287Z" fill="white"/>
</svg>
