<svg width="33" height="33" viewBox="0 0 33 33" fill="none" xmlns="http://www.w3.org/2000/svg">
<path d="M16.3644 1.92505C8.34253 1.92505 1.92505 8.34253 1.92505 16.3644C1.92505 24.3862 8.34253 30.8037 16.3644 30.8037C24.3862 30.8037 30.8037 24.3862 30.8037 16.3644C30.8037 8.34253 24.3862 1.92505 16.3644 1.92505ZM16.3644 13.1556C18.1292 13.1556 19.5731 14.5996 19.5731 16.3644C19.5731 18.1292 18.1292 19.5731 16.3644 19.5731C14.5996 19.5731 13.1556 18.1292 13.1556 16.3644C13.1556 14.5996 14.5996 13.1556 16.3644 13.1556ZM20.8566 9.9469C20.8566 8.82384 21.8192 8.02166 22.7819 8.02166C23.7445 8.02166 24.7071 8.98428 24.7071 9.9469C24.7071 10.9095 23.9049 11.8721 22.7819 11.8721C21.6588 11.8721 20.8566 11.07 20.8566 9.9469ZM16.3644 27.595C10.1073 27.595 5.13379 22.6214 5.13379 16.3644H9.9469C9.9469 19.894 12.8348 22.7819 16.3644 22.7819C19.894 22.7819 22.7819 19.894 22.7819 16.3644H27.595C27.595 22.6214 22.6214 27.595 16.3644 27.595Z" fill="white"/>
</svg>
