<svg width="32" height="33" viewBox="0 0 32 33" fill="none" xmlns="http://www.w3.org/2000/svg">
<path d="M16 2.0625C8.26875 2.0625 2 8.52715 2 16.5C2 24.4729 8.26875 30.9375 16 30.9375C23.7313 30.9375 30 24.4729 30 16.5C30 8.52715 23.7313 2.0625 16 2.0625ZM22.7281 12.9454C22.7375 13.0969 22.7375 13.2548 22.7375 13.4095C22.7375 18.1403 19.2437 23.5898 12.8594 23.5898C10.8906 23.5898 9.06562 23.0001 7.52812 21.985C7.80937 22.0172 8.07813 22.0301 8.36563 22.0301C9.99063 22.0301 11.4844 21.4629 12.675 20.5025C11.15 20.4703 9.86875 19.4391 9.43125 18.0211C9.96562 18.1017 10.4469 18.1017 10.9969 17.9566C10.2116 17.7921 9.50586 17.3523 8.99943 16.712C8.49299 16.0717 8.21715 15.2703 8.21875 14.4439V14.3988C8.67812 14.6663 9.21875 14.8307 9.78438 14.8532C9.30888 14.5264 8.91893 14.0837 8.6491 13.5643C8.37926 13.0448 8.23789 12.4648 8.2375 11.8755C8.2375 11.2084 8.40625 10.5993 8.70938 10.0708C9.58095 11.1773 10.6685 12.0822 11.9015 12.7268C13.1344 13.3714 14.485 13.7413 15.8656 13.8123C15.375 11.3792 17.1375 9.41016 19.2563 9.41016C20.2563 9.41016 21.1562 9.84199 21.7906 10.5381C22.575 10.3866 23.325 10.0837 23.9937 9.67764C23.7344 10.5059 23.1906 11.2052 22.4688 11.6467C23.1688 11.5693 23.8438 11.3695 24.4688 11.0892C23.9969 11.8046 23.4062 12.4395 22.7281 12.9454Z" fill="white"/>
</svg>
